# xmcd
# 
# Track frame offsets:
#     150
#     12725
#     23667
#     35982
#     45852
#     56650
#     68122
#     79360
#     92892
#     104379
#     115802
#     129650
#     141175
#     152037
#     165027
# 
# Disc length: 2352
# 
# Revision: 14
# Processed by: cddbd v1.5.2PL0 Copyright (c) Steve Scherf et al.
# Submitted via: fre:ac v1.0.31
# 
DISCID=c5092e0f
DTITLE=Time/Life - Time-Life Classic Country 1950-1959  Disc 2
DYEAR=1999
DGENRE=Country
TTITLE0=George Jones - White Lightning
TTITLE1=Webb Pierce - There Stands The Glass
TTITLE2=Hank Williams - Your Cheatin' Heart
TTITLE3=Elvis Presley - Heartbreak Hotel
TTITLE4=Everly Brothers - Bye, Bye Love
TTITLE5=Don Gibson - Oh, Lonesome Me
TTITLE6=Stonewall Jackson - Waterloo
TTITLE7=Ray Price - Heartaches By The Number
TTITLE8=Kitty Wells - It Wasn't God Who Made Honky Tonk Angels
TTITLE9=Marty Robbins - A White Sport Coat (And A Pink Carnation)
TTITLE10=Patti Page - Tennessee Waltz
TTITLE11=Eddy Arnold - Cattle Call
TTITLE12=Ferlin Husky - Gone
TTITLE13=Jim Reeves - Four Walls
TTITLE14=Hank Locklin - Send Me The Pillow You Dream On
EXTD=
EXTT0=
EXTT1=
EXTT2=
EXTT3=
EXTT4=
EXTT5=
EXTT6=
EXTT7=
EXTT8=
EXTT9=
EXTT10=
EXTT11=
EXTT12=
EXTT13=
EXTT14=
PLAYORDER=
